<mxfile host="app.diagrams.net">
  <diagram name="Flowchart - สามเหลี่ยม" id="flow-triangle">
    <mxGraphModel dx="1200" dy="800" grid="1" gridSize="10" guides="1" tooltips="1" connect="1" arrows="1" fold="1" page="1" pageScale="1" pageWidth="827" pageHeight="1169" math="0" shadow="0">
      <root>
        <mxCell id="0"/>
        <mxCell id="1" parent="0"/>

        <!-- Start -->
        <mxCell id="start" value="Start" style="ellipse;whiteSpace=wrap;html=1;" vertex="1" parent="1">
          <mxGeometry x="220" y="20" width="120" height="60" as="geometry"/>
        </mxCell>

        <!-- Input base -->
        <mxCell id="input_base" value="รับค่าความสูง H" style="shape=parallelogram;whiteSpace=wrap;html=1;" vertex="1" parent="1">
          <mxGeometry x="200" y="120" width="160" height="60" as="geometry"/>
        </mxCell>

        <!-- Input height -->
        <mxCell id="input_height" value="รับค่าฐาน W" style="shape=parallelogram;whiteSpace=wrap;html=1;" vertex="1" parent="1">
          <mxGeometry x="200" y="220" width="160" height="60" as="geometry"/>
        </mxCell>

        <!-- Process: คำนวณพื้นที่ -->
        <mxCell id="calc_area" value="คำนวณพื้นที่: Area = (base * height) / 2" style="rounded=0;whiteSpace=wrap;html=1;" vertex="1" parent="1">
          <mxGeometry x="160" y="320" width="240" height="60" as="geometry"/>
        </mxCell>

        <!-- Output -->
        <mxCell id="output" value="แสดงผล Area" style="shape=parallelogram;whiteSpace=wrap;html=1;" vertex="1" parent="1">
          <mxGeometry x="160" y="420" width="240" height="60" as="geometry"/>
        </mxCell>

        <!-- Stop -->
        <mxCell id="stop" value="Stop" style="ellipse;whiteSpace=wrap;html=1;" vertex="1" parent="1">
          <mxGeometry x="220" y="520" width="120" height="60" as="geometry"/>
        </mxCell>

        <!-- Edges -->
        <mxCell id="e1" edge="1" parent="1" source="start" target="input_base"><mxGeometry relative="1" as="geometry"/></mxCell>
        <mxCell id="e2" edge="1" parent="1" source="input_base" target="input_height"><mxGeometry relative="1" as="geometry"/></mxCell>
        <mxCell id="e3" edge="1" parent="1" source="input_height" target="calc_area"><mxGeometry relative="1" as="geometry"/></mxCell>
        <mxCell id="e4" edge="1" parent="1" source="calc_area" target="output"><mxGeometry relative="1" as="geometry"/></mxCell>
        <mxCell id="e5" edge="1" parent="1" source="output" target="stop"><mxGeometry relative="1" as="geometry"/></mxCell>
      </root>
    </mxGraphModel>
  </diagram>
</mxfile>
